<svg width="24" height="24" viewBox="0 0 24 24" fill="none" xmlns="http://www.w3.org/2000/svg">
<path fill-rule="evenodd" clip-rule="evenodd" d="M6 4.69922V20.2127C6 20.9194 6.80487 21.2083 7.23991 20.8105L11.2649 17.0283C11.6497 16.6666 12.2495 16.6666 12.6344 17.0283L16.6595 20.8106C16.883 21.0152 17.1805 21.0544 17.4771 20.9289C17.7766 20.8021 17.9696 20.5497 18 20.2723V4.66028C18 3.7652 17.2243 3 16.3813 3H7.71942C6.89718 3 6.08312 3.74986 6 4.69922ZM4.00246 4.59014C4.13612 2.6893 5.73051 1 7.71942 1H16.3813C18.3584 1 20 2.69045 20 4.66028V20.315C20 20.3384 19.9992 20.3618 19.9975 20.3851C19.843 22.5835 17.0758 23.9175 15.3 22.2775L15.2936 22.2716L11.9496 19.1293L8.59935 22.2775C6.81798 23.9226 4 22.5742 4 20.2127V4.66028C4 4.63688 4.00082 4.61349 4.00246 4.59014Z" fill="black"/>
</svg>
