<svg width="155" height="16" viewBox="0 0 155 16" fill="none" xmlns="http://www.w3.org/2000/svg">
<path d="M15.92 15H11.88V6.98L8.9 15H7.1L4.12 6.98V15H0.08V1.66H5.66L8 8.06L10.34 1.66H15.92V15ZM28.7278 13.76C27.7411 14.7467 26.4211 15.24 24.7678 15.24C23.1145 15.24 21.7945 14.7467 20.8078 13.76C19.8345 12.7733 19.3478 11.5733 19.3478 10.16C19.3478 8.74667 19.8345 7.55333 20.8078 6.58C21.7945 5.59333 23.1145 5.1 24.7678 5.1C26.4211 5.1 27.7411 5.59333 28.7278 6.58C29.7145 7.55333 30.2078 8.74667 30.2078 10.16C30.2078 11.5733 29.7145 12.7733 28.7278 13.76ZM24.7678 12.06C25.3145 12.06 25.7411 11.8867 26.0478 11.54C26.3545 11.18 26.5078 10.72 26.5078 10.16C26.5078 9.61333 26.3545 9.16667 26.0478 8.82C25.7411 8.46 25.3145 8.28 24.7678 8.28C24.2345 8.28 23.8145 8.46 23.5078 8.82C23.2011 9.16667 23.0478 9.61333 23.0478 10.16C23.0478 10.72 23.2011 11.18 23.5078 11.54C23.8145 11.8867 24.2345 12.06 24.7678 12.06ZM39.8108 15H35.9908L32.2508 5.34H36.0508L37.8908 10.86L39.7508 5.34H43.5508L39.8108 15ZM49.4739 4.06C49.0872 4.44667 48.6139 4.64 48.0539 4.64C47.4939 4.64 47.0139 4.44667 46.6139 4.06C46.2272 3.66 46.0339 3.18 46.0339 2.62C46.0339 2.06 46.2272 1.58667 46.6139 1.2C47.0139 0.799999 47.4939 0.599999 48.0539 0.599999C48.6139 0.599999 49.0872 0.799999 49.4739 1.2C49.8739 1.58667 50.0739 2.06 50.0739 2.62C50.0739 3.18 49.8739 3.66 49.4739 4.06ZM49.8539 15H46.2539V5.34H49.8539V15ZM58.5794 15.24C57.0327 15.24 55.746 14.78 54.7194 13.86C53.706 12.94 53.1994 11.7067 53.1994 10.16C53.1994 8.73333 53.6927 7.53333 54.6794 6.56C55.666 5.58667 56.926 5.1 58.4594 5.1C59.9127 5.1 61.1127 5.59333 62.0594 6.58C63.006 7.55333 63.4794 8.87333 63.4794 10.54V11.28H56.9194C57.026 11.6133 57.2594 11.9 57.6194 12.14C57.9794 12.38 58.4394 12.5 58.9994 12.5C59.306 12.5 59.6927 12.4333 60.1594 12.3C60.6394 12.1667 60.9927 12.0067 61.2194 11.82L62.6994 14.04C62.246 14.4267 61.6394 14.7267 60.8794 14.94C60.1194 15.14 59.3527 15.24 58.5794 15.24ZM60.0594 9C59.8727 8.22667 59.3394 7.84 58.4594 7.84C57.6194 7.84 57.0927 8.22667 56.8794 9H60.0594ZM80.7964 15H76.7564V5.18H73.1764V1.66H84.3564V5.18H80.7964V15ZM90.3148 15H86.7148V5.34H90.3148V6.4C90.6215 6.04 91.0548 5.72667 91.6148 5.46C92.1882 5.19333 92.7415 5.06 93.2748 5.06V8.5C93.0748 8.43333 92.8015 8.4 92.4548 8.4C91.4015 8.4 90.6882 8.62667 90.3148 9.08V15ZM105.688 15H102.088V14.08C101.821 14.4267 101.414 14.7067 100.868 14.92C100.334 15.1333 99.7678 15.24 99.1678 15.24C98.3411 15.24 97.5811 14.9667 96.8878 14.42C96.1945 13.86 95.8478 13.0733 95.8478 12.06C95.8478 11.3133 96.0278 10.7 96.3878 10.22C96.7611 9.72667 97.1811 9.4 97.6478 9.24C98.1145 9.06667 98.6211 8.98 99.1678 8.98C100.554 8.98 101.528 9.33333 102.088 10.04V9.04C102.088 8.69333 101.928 8.40667 101.608 8.18C101.301 7.95333 100.861 7.84 100.288 7.84C99.3278 7.84 98.4345 8.15333 97.6078 8.78L96.3878 6.56C97.6011 5.58667 99.1211 5.1 100.948 5.1C101.588 5.1 102.174 5.16667 102.708 5.3C103.241 5.42 103.741 5.62667 104.208 5.92C104.674 6.2 105.034 6.62 105.288 7.18C105.554 7.72667 105.688 8.38667 105.688 9.16V15ZM100.668 12.9C101.374 12.9 101.848 12.7267 102.088 12.38V11.84C101.848 11.4933 101.374 11.32 100.668 11.32C99.8278 11.32 99.4078 11.5867 99.4078 12.12C99.4078 12.64 99.8278 12.9 100.668 12.9ZM114.44 15.24C112.88 15.24 111.586 14.7733 110.56 13.84C109.533 12.9067 109.02 11.68 109.02 10.16C109.02 8.65333 109.533 7.43333 110.56 6.5C111.586 5.56667 112.88 5.1 114.44 5.1C115.44 5.1 116.293 5.28667 117 5.66C117.706 6.02 118.22 6.44 118.54 6.92L116.22 9.1C115.86 8.55333 115.32 8.28 114.6 8.28C114.066 8.28 113.613 8.44667 113.24 8.78C112.88 9.1 112.7 9.56 112.7 10.16C112.7 10.76 112.88 11.2267 113.24 11.56C113.613 11.8933 114.066 12.06 114.6 12.06C115.293 12.06 115.833 11.78 116.22 11.22L118.54 13.42C118.22 13.9 117.706 14.3267 117 14.7C116.293 15.06 115.44 15.24 114.44 15.24ZM132.099 15H127.679L126.019 11.88L125.319 12.82V15H121.719V1.66H125.319V8.78L127.539 5.34H131.879L128.559 9.74L132.099 15ZM139.376 15.24C137.83 15.24 136.543 14.78 135.516 13.86C134.503 12.94 133.996 11.7067 133.996 10.16C133.996 8.73333 134.49 7.53333 135.476 6.56C136.463 5.58667 137.723 5.1 139.256 5.1C140.71 5.1 141.91 5.59333 142.856 6.58C143.803 7.55333 144.276 8.87333 144.276 10.54V11.28H137.716C137.823 11.6133 138.056 11.9 138.416 12.14C138.776 12.38 139.236 12.5 139.796 12.5C140.103 12.5 140.49 12.4333 140.956 12.3C141.436 12.1667 141.79 12.0067 142.016 11.82L143.496 14.04C143.043 14.4267 142.436 14.7267 141.676 14.94C140.916 15.14 140.15 15.24 139.376 15.24ZM140.856 9C140.67 8.22667 140.136 7.84 139.256 7.84C138.416 7.84 137.89 8.22667 137.676 9H140.856ZM151.116 15H147.516V5.34H151.116V6.4C151.422 6.04 151.856 5.72667 152.416 5.46C152.989 5.19333 153.542 5.06 154.076 5.06V8.5C153.876 8.43333 153.602 8.4 153.256 8.4C152.202 8.4 151.489 8.62667 151.116 9.08V15Z" fill="white"/>
</svg>
