<svg width="50" height="50" viewBox="0 0 50 50" fill="none" xmlns="http://www.w3.org/2000/svg">
<path fill-rule="evenodd" clip-rule="evenodd" d="M41.1459 25C41.1459 24.1371 40.4464 23.4375 39.5834 23.4375H10.4167C9.5538 23.4375 8.85425 24.1371 8.85425 25C8.85425 25.8629 9.5538 26.5625 10.4167 26.5625H39.5834C40.4464 26.5625 41.1459 25.8629 41.1459 25Z" fill="white"/>
<path fill-rule="evenodd" clip-rule="evenodd" d="M41.1459 14.5833C41.1459 13.7204 40.4464 13.0208 39.5834 13.0208H10.4167C9.5538 13.0208 8.85425 13.7204 8.85425 14.5833C8.85425 15.4463 9.5538 16.1458 10.4167 16.1458H39.5834C40.4464 16.1458 41.1459 15.4463 41.1459 14.5833Z" fill="white"/>
<path fill-rule="evenodd" clip-rule="evenodd" d="M41.1459 35.4167C41.1459 34.5537 40.4464 33.8542 39.5834 33.8542H10.4167C9.5538 33.8542 8.85425 34.5537 8.85425 35.4167C8.85425 36.2796 9.5538 36.9792 10.4167 36.9792H39.5834C40.4464 36.9792 41.1459 36.2796 41.1459 35.4167Z" fill="white"/>
</svg>
