<svg width="24" height="24" viewBox="0 0 24 24" fill="none" xmlns="http://www.w3.org/2000/svg">
<path d="M19.4823 3.6H13.052V3C13.052 2.4 12.6501 2 12.0473 2C11.4445 2 11.0426 2.4 11.0426 3V3.6H4.6123C3.20568 3.6 2 4.8 2 6.3V14.5C2 16 3.20568 17.1 4.6123 17.1H6.1194L3.70804 20.4C3.40662 20.9 3.5071 21.5 3.90899 21.8C4.21041 21.9 4.41135 22 4.6123 22C4.91372 22 5.21514 21.9 5.41608 21.6L8.63122 17.1H11.0426V21C11.0426 21.6 11.4445 22 12.0473 22C12.6501 22 13.052 21.6 13.052 21V17.1H15.4634L18.6785 21.6C18.8795 21.9 19.1809 22 19.4823 22C19.6833 22 19.8842 21.9 20.0852 21.8C20.5875 21.5 20.688 20.9 20.2861 20.4L17.8747 17.1H19.3818C20.8889 17.1 21.9941 15.9 21.9941 14.5V6.3C22.0946 4.8 20.8889 3.6 19.4823 3.6ZM19.4823 15.1C18.9646 15.1 4.6123 15.1 4.6123 15.1C4.21041 15.1 4.00946 14.8 4.00946 14.5V6.3C4.00946 5.9 4.31088 5.7 4.6123 5.7H19.3818C19.7837 5.7 19.9847 6 19.9847 6.3V14.5C19.9847 14.5 20 15.1 19.4823 15.1Z" fill="black"/>
</svg>
