<svg width="24" height="24" viewBox="0 0 24 24" fill="none" xmlns="http://www.w3.org/2000/svg">
<path fill-rule="evenodd" clip-rule="evenodd" d="M3 7.7C3 6.73784 3.74844 6 4.65909 6H12.3409C13.2516 6 14 6.73784 14 7.7V8.50245C13.9997 8.51711 13.9997 8.5318 14 8.54651V15.3C14 16.1864 13.228 17 12.3409 17H4.65909C3.77197 17 3 16.1864 3 15.3V7.7ZM16 9.16691V15.3C16 17.2136 14.4083 19 12.3409 19H4.65909C2.59167 19 1 17.2136 1 15.3V7.7C1 5.66216 2.61519 4 4.65909 4H12.3409C14.1443 4 15.614 5.29406 15.9349 6.99844L19.938 5.17278C19.9678 5.15918 19.9983 5.14706 20.0293 5.13645C20.6973 4.90797 21.4089 4.97014 21.9805 5.29604C22.5619 5.62748 23 6.24351 23 7.02157V15.9415C23 16.7465 22.5099 17.3707 21.9508 17.6971C21.3917 18.0235 20.6253 18.137 19.9178 17.7811L18.0851 16.9453C17.5826 16.7161 17.361 16.123 17.5902 15.6205C17.8193 15.118 18.4124 14.8964 18.9149 15.1256L20.7679 15.9706C20.7838 15.9779 20.7996 15.9856 20.8151 15.9937C20.8224 15.9974 20.8322 16.001 20.852 15.9998C20.8754 15.9983 20.9085 15.9898 20.9425 15.9699C20.9731 15.9521 20.9914 15.9328 21 15.9212V7.03974C20.9973 7.03788 20.994 7.03579 20.99 7.03354C20.9477 7.00938 20.8492 6.98054 20.7123 7.01784L16 9.16691Z" fill="black"/>
</svg>
